<?xml version="1.0" encoding="utf-8"?>
<!-- Generator: Adobe Illustrator 16.0.0, SVG Export Plug-In . SVG Version: 6.00 Build 0)  -->
<!DOCTYPE svg PUBLIC "-//W3C//DTD SVG 1.1//EN" "http://www.w3.org/Graphics/SVG/1.1/DTD/svg11.dtd">
<svg version="1.1" id="Layer_1" xmlns="http://www.w3.org/2000/svg" xmlns:xlink="http://www.w3.org/1999/xlink" x="0px" y="0px"
	 width="2446px" height="1080px" viewBox="0 0 2446 1080" enable-background="new 0 0 2446 1080" xml:space="preserve">
<g>
	<defs>
		<rect id="SVGID_1_" width="2446" height="1080"/>
	</defs>
	<clipPath id="SVGID_2_">
		<use xlink:href="#SVGID_1_"  overflow="visible"/>
	</clipPath>
	<g clip-path="url(#SVGID_2_)">
		<defs>
			<rect id="SVGID_3_" width="2446" height="1080"/>
		</defs>
		<clipPath id="SVGID_4_">
			<use xlink:href="#SVGID_3_"  overflow="visible"/>
		</clipPath>
		<path clip-path="url(#SVGID_4_)" fill="#1C2A39" d="M777.849,800.693h-370.76v-370.76c0-54.794,44.418-99.213,99.212-99.213
			h271.548c54.793,0,99.212,44.419,99.212,99.213V701.48C877.061,756.274,832.642,800.693,777.849,800.693"/>
	</g>
	<g clip-path="url(#SVGID_2_)">
		<defs>
			<path id="SVGID_5_" d="M689.572,464.74c-0.323,56.353-1.085,117.931-2.723,122.388c0,0.051-0.018,0.085-0.018,0.154
				c-5.494,15.075-18.37,26.611-34.235,30.2c-16.274,26.559-49.393,59.627-112.11,54.751
				c25.959,26.009,61.841,42.131,101.518,42.131c79.164,0,143.358-64.159,143.358-143.358v-74.848
				c0.013-23.382,0.141-11.684,0.157-31.104c0.023-26.507-21.467-48.004-47.974-48.004
				C711.157,417.05,689.724,438.352,689.572,464.74"/>
		</defs>
		<clipPath id="SVGID_6_">
			<use xlink:href="#SVGID_5_"  overflow="visible"/>
		</clipPath>
		
			<linearGradient id="SVGID_7_" gradientUnits="userSpaceOnUse" x1="0" y1="1080" x2="1" y2="1080" gradientTransform="matrix(0 297.3142 297.3142 0 -320436.3125 417)">
			<stop  offset="0" style="stop-color:#035FA4"/>
			<stop  offset="1.065560e-007" style="stop-color:#035FA4"/>
			<stop  offset="1" style="stop-color:#46ECE1"/>
		</linearGradient>
		<rect x="540.486" y="417.05" clip-path="url(#SVGID_6_)" fill="url(#SVGID_7_)" width="245.056" height="297.314"/>
	</g>
	<g clip-path="url(#SVGID_2_)">
		<defs>
			<path id="SVGID_8_" d="M498.663,571.006c0,39.504,15.967,75.269,41.823,101.228c10.542,3.176,21.701,4.857,33.289,4.857
				c44.415,0,82.994-24.963,102.48-61.618c4.688-8.79,8.275-18.232,10.576-28.19c-5.494,15.075-18.37,26.611-34.235,30.2
				c-2.969,0.669-6.026,1.063-9.167,1.149c-0.447,0.034-0.927,0.034-1.425,0.034c-1.323,0-2.627-0.068-3.915-0.189
				c-0.326,0-0.635-0.017-0.944-0.051c-19.161-1.957-34.972-15.246-40.604-33.05c-71.129-22.902-96.985-87.903-97.844-90.083v0.052
				c-0.017-0.017-0.017-0.035-0.017-0.052c-0.017-0.035-0.017-0.052-0.017-0.052V571.006z"/>
		</defs>
		<clipPath id="SVGID_9_">
			<use xlink:href="#SVGID_8_"  overflow="visible"/>
		</clipPath>
		
			<linearGradient id="SVGID_10_" gradientUnits="userSpaceOnUse" x1="0" y1="1080.1465" x2="1" y2="1080.1465" gradientTransform="matrix(170.0561 73.9993 73.9993 -170.0561 -79430.1016 184230.9844)">
			<stop  offset="0" style="stop-color:#3DDC82"/>
			<stop  offset="1.065560e-007" style="stop-color:#3DDC82"/>
			<stop  offset="1" style="stop-color:#039E90"/>
		</linearGradient>
		<polygon clip-path="url(#SVGID_9_)" fill="url(#SVGID_10_)" points="528.621,426.396 753.364,524.193 656.874,745.936 
			432.13,648.14 		"/>
	</g>
	<g clip-path="url(#SVGID_2_)">
		<defs>
			<path id="SVGID_11_" d="M652.596,618.061c-16.274,26.561-49.393,59.627-112.11,54.75c10.542,3.178,21.701,4.859,33.289,4.859
				c44.415,0,82.994-24.963,102.48-61.617c4.688-8.791,8.275-18.232,10.576-28.191C681.337,602.935,668.461,614.472,652.596,618.061
				"/>
		</defs>
		<clipPath id="SVGID_12_">
			<use xlink:href="#SVGID_11_"  overflow="visible"/>
		</clipPath>
		
			<linearGradient id="SVGID_13_" gradientUnits="userSpaceOnUse" x1="0" y1="1079.9297" x2="1" y2="1079.9297" gradientTransform="matrix(-131.5092 99.2921 99.2921 131.5092 -106544.9219 -141440.8438)">
			<stop  offset="0" style="stop-color:#068272"/>
			<stop  offset="1" style="stop-color:#0B8871"/>
		</linearGradient>
		<polygon clip-path="url(#SVGID_12_)" fill="url(#SVGID_13_)" points="730.027,645.073 593.621,748.063 497.29,620.475 
			633.696,517.485 		"/>
	</g>
	<g clip-path="url(#SVGID_2_)">
		<defs>
			<rect id="SVGID_14_" width="2446" height="1080"/>
		</defs>
		<clipPath id="SVGID_15_">
			<use xlink:href="#SVGID_14_"  overflow="visible"/>
		</clipPath>
		<defs>
			<filter id="Adobe_OpacityMaskFilter" filterUnits="userSpaceOnUse" x="437.13" y="426.068" width="261.582" height="261.583">
				<feFlood  style="flood-color:white;flood-opacity:1" result="back"/>
				<feBlend  in="SourceGraphic" in2="back" mode="normal"/>
			</filter>
		</defs>
		<mask maskUnits="userSpaceOnUse" x="437.13" y="426.068" width="261.582" height="261.583" id="SVGID_16_">
			<g filter="url(#Adobe_OpacityMaskFilter)">
				<g enable-background="new    ">
					<g>
						<defs>
							<path id="SVGID_17_" d="M637.145,618.426c-39.505-2.267-74.838-20.07-99.973-47.42
								c-12.945-14.095-23.212-30.714-29.907-49.068c-0.103-0.274-0.206-0.549-0.309-0.824c-3.005-8.412-7.795-24.242-8.259-25.753
								v-0.069c0.859,2.181,26.715,67.182,97.844,90.084C602.173,603.18,617.984,616.469,637.145,618.426"/>
						</defs>
						<clipPath id="SVGID_18_" clip-path="url(#SVGID_15_)">
							<use xlink:href="#SVGID_17_"  overflow="visible"/>
						</clipPath>
						<defs>
							
								<filter id="Adobe_OpacityMaskFilter_1_" filterUnits="userSpaceOnUse" x="497.986" y="494.492" width="139.871" height="124.733">
								<feFlood  style="flood-color:white;flood-opacity:1" result="back"/>
								<feBlend  in="SourceGraphic" in2="back" mode="normal"/>
							</filter>
						</defs>
						<mask maskUnits="userSpaceOnUse" x="497.986" y="494.492" width="139.871" height="124.733" id="SVGID_16_">
							<g filter="url(#Adobe_OpacityMaskFilter_1_)">
								<g enable-background="new    ">
								</g>
							</g>
						</mask>
						
							<linearGradient id="SVGID_19_" gradientUnits="userSpaceOnUse" x1="0" y1="1080.001" x2="1" y2="1080.001" gradientTransform="matrix(171.4088 0.9902 0.9902 -171.4088 -636.0914 185677.6563)">
							<stop  offset="0" style="stop-color:#9D9D9C"/>
							<stop  offset="1" style="stop-color:#FFFFFF"/>
						</linearGradient>
						<polygon clip-path="url(#SVGID_18_)" mask="url(#SVGID_16_)" fill="url(#SVGID_19_)" points="498.702,494.492 
							637.856,495.296 637.14,619.226 497.986,618.422 						"/>
					</g>
				</g>
			</g>
		</mask>
		<g clip-path="url(#SVGID_15_)">
			<g>
				<defs>
					<rect id="SVGID_20_" x="498.697" y="495.293" width="138.448" height="123.133"/>
				</defs>
				<clipPath id="SVGID_21_">
					<use xlink:href="#SVGID_20_"  overflow="visible"/>
				</clipPath>
				<g clip-path="url(#SVGID_21_)">
					<defs>
						<path id="SVGID_22_" d="M637.145,618.426c-39.505-2.267-74.838-20.07-99.973-47.42
							c-12.945-14.095-23.212-30.714-29.907-49.068c-0.103-0.274-0.206-0.549-0.309-0.824c-3.005-8.412-7.795-24.242-8.259-25.753
							v-0.069c0.859,2.181,26.715,67.182,97.844,90.084C602.173,603.18,617.984,616.469,637.145,618.426"/>
					</defs>
					<clipPath id="SVGID_23_">
						<use xlink:href="#SVGID_22_"  overflow="visible"/>
					</clipPath>
					
						<linearGradient id="SVGID_24_" gradientUnits="userSpaceOnUse" x1="0" y1="1080.0742" x2="1" y2="1080.0742" gradientTransform="matrix(127.1081 127.1081 127.1081 -127.1081 -136781.1719 137780.0625)">
						<stop  offset="0" style="stop-color:#769439"/>
						<stop  offset="1.118840e-007" style="stop-color:#769439"/>
						<stop  offset="1" style="stop-color:#007D34"/>
					</linearGradient>
					<polygon clip-path="url(#SVGID_23_)" fill="url(#SVGID_24_)" points="567.921,426.068 698.712,556.859 567.921,687.65 
						437.13,556.859 					"/>
				</g>
			</g>
		</g>
	</g>
	<g clip-path="url(#SVGID_2_)">
		<defs>
			<path id="SVGID_25_" d="M498.629,464.844v30.397h0.051v0.052h0.017c0.859,2.18,26.715,67.181,97.844,90.083
				c-1.441-4.532-2.215-9.356-2.215-14.37h-0.12V464.844c0-26.394-21.396-47.788-47.788-47.788
				C520.024,417.056,498.629,438.45,498.629,464.844"/>
		</defs>
		<clipPath id="SVGID_26_">
			<use xlink:href="#SVGID_25_"  overflow="visible"/>
		</clipPath>
		
			<linearGradient id="SVGID_27_" gradientUnits="userSpaceOnUse" x1="0" y1="1080" x2="1" y2="1080" gradientTransform="matrix(0 168.3211 168.3211 0 -181239.1875 417)">
			<stop  offset="0" style="stop-color:#FFD04B"/>
			<stop  offset="1.065560e-007" style="stop-color:#FFD04B"/>
			<stop  offset="1" style="stop-color:#14A141"/>
		</linearGradient>
		<rect x="498.629" y="417.056" clip-path="url(#SVGID_26_)" fill="url(#SVGID_27_)" width="97.912" height="168.32"/>
	</g>
	<g clip-path="url(#SVGID_2_)">
		<defs>
			<rect id="SVGID_28_" width="2446" height="1080"/>
		</defs>
		<clipPath id="SVGID_29_">
			<use xlink:href="#SVGID_28_"  overflow="visible"/>
		</clipPath>
		<path clip-path="url(#SVGID_29_)" fill-rule="evenodd" clip-rule="evenodd" fill="#1C2A39" d="M1050.83,708.874
			c-37.5,0-72.162-14.206-98.868-39.775c-27.275-26.705-42.615-61.935-43.753-100.006c-0.566-37.501,13.069-73.866,40.343-101.14
			c26.14-27.275,61.369-42.617,99.437-43.753c38.072-0.568,73.868,13.637,101.143,40.343c13.636,12.501,14.204,34.662,1.137,47.73
			c-13.069,13.637-34.662,14.206-48.297,1.136c-14.207-13.637-32.959-21.023-52.846-21.023c-19.886,0-38.068,8.522-52.275,22.729
			c-13.068,14.206-21.025,32.955-20.456,52.843c0,19.319,8.523,38.64,22.727,51.708c14.208,14.206,32.959,21.592,52.276,21.023
			c18.752,0,36.367-7.386,50.004-19.888c13.068-13.068,35.229-11.932,47.73,1.705c13.07,13.637,11.932,35.229-1.703,48.298
			c-25.572,23.864-59.096,37.503-94.325,38.07H1050.83z"/>
		<path clip-path="url(#SVGID_29_)" fill-rule="evenodd" clip-rule="evenodd" fill="#1C2A39" d="M1437.202,512.84
			c-13.066,13.639-34.09,14.775-48.298,1.705c-12.5-11.932-29.546-18.75-47.16-18.75c-38.641,0-70.459,32.956-70.459,73.296v107.394
			c0,18.752-15.342,34.094-34.093,34.094c-18.752,0-34.091-15.342-34.091-34.094V458.861c0-18.751,15.339-33.525,34.091-33.525
			c15.342,0,27.843,9.661,32.39,23.297c21.023-13.068,46.022-21.023,72.162-21.023c35.228,0,68.185,13.637,93.755,37.501
			C1449.135,477.612,1450.272,499.205,1437.202,512.84"/>
		<path clip-path="url(#SVGID_29_)" fill-rule="evenodd" clip-rule="evenodd" fill="#1C2A39" d="M1699.702,587.276h-175.008
			c7.953,32.389,36.933,57.391,72.162,57.391c18.183,0,44.888-7.388,59.664-21.592c13.636-13.07,35.228-13.07,48.298,0.566
			c13.636,13.07,13.066,35.229-0.568,48.3c-31.253,30.115-75.003,40.343-107.394,40.343c-78.981,0-142.053-63.641-142.053-142.622
			c0-77.845,63.071-142.621,142.053-142.621c8.522,0,16.478,0.569,25.002,2.274c38.637,7.386,71.594,31.251,92.051,65.343
			c9.091,15.91,19.317,36.934,18.184,55.686c0,5.112-2.275,10.796-4.548,16.478C1723,577.618,1713.341,587.276,1699.702,587.276
			 M1534.354,529.887L1534.354,529.887h120.46c-11.364-21.591-32.388-34.092-57.958-34.092
			C1570.72,495.795,1547.989,508.864,1534.354,529.887"/>
		<path clip-path="url(#SVGID_29_)" fill-rule="evenodd" clip-rule="evenodd" fill="#1C2A39" d="M2038.912,313.967v361.381
			c0,18.752-15.343,34.095-34.663,34.095c-15.342,0-28.411-9.661-32.956-23.866c-22.729,15.91-51.139,25.002-81.253,25.002
			c-78.981,0-143.76-64.209-143.76-143.758c0-78.981,64.778-143.757,143.76-143.757c29.546,0,56.819,9.091,80.115,23.865V313.967
			c0-18.751,15.343-34.66,34.094-34.66C2023.569,279.307,2038.912,295.216,2038.912,313.967 M1965.043,566.821L1965.043,566.821
			c0-41.48-33.524-75.004-75.003-75.004c-41.481,0-75.007,33.524-75.007,75.004c0,41.48,33.525,75.003,75.007,75.003
			C1931.519,641.824,1965.043,608.302,1965.043,566.821"/>
	</g>
</g>
</svg>
